<svg xmlns="http://www.w3.org/2000/svg" width="1180" height="610" viewBox="0 0 1180 610" font-family="ui-monospace,SFMono-Regular,Menlo,Consolas,'Liberation Mono',monospace" role="img" aria-label="Ariel — profile.sh --live">
<defs>
<linearGradient id="accent" x1="0" y1="0" x2="1" y2="0">
  <stop offset="0" stop-color="#F0DB4F"><animate attributeName="stop-color" values="#F0DB4F;#38BDF8;#F472B6;#F0DB4F" dur="9s" repeatCount="indefinite"/></stop>
  <stop offset="0.5" stop-color="#38BDF8"><animate attributeName="stop-color" values="#38BDF8;#F472B6;#F0DB4F;#38BDF8" dur="9s" repeatCount="indefinite"/></stop>
  <stop offset="1" stop-color="#F472B6"><animate attributeName="stop-color" values="#F472B6;#F0DB4F;#38BDF8;#F472B6" dur="9s" repeatCount="indefinite"/></stop>
</linearGradient>
<linearGradient id="panelGrad" x1="0" y1="0" x2="0" y2="1"><stop offset="0" stop-color="#080D1A"/><stop offset="1" stop-color="#0B1426"/></linearGradient>
<linearGradient id="pyBlue" x1="0" y1="0" x2="1" y2="1"><stop offset="0" stop-color="#5A9FD4"/><stop offset="1" stop-color="#306998"/></linearGradient>
<linearGradient id="pyGold" x1="1" y1="0" x2="0" y2="1"><stop offset="0" stop-color="#FFE873"/><stop offset="1" stop-color="#FFD43B"/></linearGradient>
<linearGradient id="tagGrad" x1="0" y1="0" x2="1" y2="1">
  <stop offset="0" stop-color="#38BDF8"><animate attributeName="stop-color" values="#38BDF8;#A78BFA;#38BDF8" dur="6s" repeatCount="indefinite"/></stop>
  <stop offset="1" stop-color="#F472B6"><animate attributeName="stop-color" values="#F472B6;#38BDF8;#F472B6" dur="6s" repeatCount="indefinite"/></stop>
</linearGradient>
<linearGradient id="scan" x1="0" y1="0" x2="0" y2="1">
  <stop offset="0" stop-color="#38BDF8" stop-opacity="0"/>
  <stop offset="0.5" stop-color="#38BDF8" stop-opacity="0.28"/>
  <stop offset="1" stop-color="#38BDF8" stop-opacity="0"/>
</linearGradient>
<filter id="glow8" x="-60%" y="-60%" width="220%" height="220%"><feGaussianBlur stdDeviation="8"/></filter>
<filter id="glow3" x="-60%" y="-60%" width="220%" height="220%"><feGaussianBlur stdDeviation="3"/></filter>
<filter id="txtGlow" x="-40%" y="-40%" width="180%" height="180%"><feGaussianBlur stdDeviation="1.6" result="b"/><feMerge><feMergeNode in="b"/><feMergeNode in="SourceGraphic"/></feMerge></filter>
<clipPath id="winClip"><rect x="2" y="2" width="1176" height="606" rx="18"/></clipPath>
<clipPath id="visClip"><rect x="36" y="84" width="400" height="492" rx="10"/></clipPath>
</defs>

<rect x="2" y="2" width="1176" height="606" rx="18" fill="#05070F"/>
<g clip-path="url(#winClip)">
<rect x="2" y="2" width="1176" height="606" fill="url(#panelGrad)"/>

<!-- title bar -->
<rect x="2" y="2" width="1176" height="46" fill="#0A1120"/>
<line x1="2" y1="48" x2="1178" y2="48" stroke="rgba(255,255,255,0.10)"/>
<circle cx="30" cy="25" r="5.5" fill="#ff5f56"/>
<circle cx="50" cy="25" r="5.5" fill="#ffbd2e"/>
<circle cx="70" cy="25" r="5.5" fill="#27c93f"/>
<text x="590" y="29" text-anchor="middle" font-size="12" fill="#94A3B8">ariel@dev &#8212; % ./profile.sh --live</text>

<!-- left panel -->
<text x="38" y="74" font-size="10" letter-spacing="3" fill="#475569">VISUAL.MAP</text>
<rect x="36" y="84" width="400" height="492" rx="10" fill="none" stroke="#38BDF8" stroke-width="2" opacity="0.40" filter="url(#glow3)"/>
<rect x="36" y="84" width="400" height="492" rx="10" fill="#070C18" stroke="rgba(56,189,248,0.30)"/>
<g clip-path="url(#visClip)">
<line x1="76" y1="84" x2="76" y2="576" stroke="rgba(56,189,248,0.055)"/><line x1="116" y1="84" x2="116" y2="576" stroke="rgba(56,189,248,0.055)"/><line x1="156" y1="84" x2="156" y2="576" stroke="rgba(56,189,248,0.055)"/><line x1="196" y1="84" x2="196" y2="576" stroke="rgba(56,189,248,0.055)"/><line x1="236" y1="84" x2="236" y2="576" stroke="rgba(56,189,248,0.055)"/><line x1="276" y1="84" x2="276" y2="576" stroke="rgba(56,189,248,0.055)"/><line x1="316" y1="84" x2="316" y2="576" stroke="rgba(56,189,248,0.055)"/><line x1="356" y1="84" x2="356" y2="576" stroke="rgba(56,189,248,0.055)"/><line x1="396" y1="84" x2="396" y2="576" stroke="rgba(56,189,248,0.055)"/><line x1="436" y1="84" x2="436" y2="576" stroke="rgba(56,189,248,0.055)"/><line x1="36" y1="124" x2="436" y2="124" stroke="rgba(56,189,248,0.055)"/><line x1="36" y1="164" x2="436" y2="164" stroke="rgba(56,189,248,0.055)"/><line x1="36" y1="204" x2="436" y2="204" stroke="rgba(56,189,248,0.055)"/><line x1="36" y1="244" x2="436" y2="244" stroke="rgba(56,189,248,0.055)"/><line x1="36" y1="284" x2="436" y2="284" stroke="rgba(56,189,248,0.055)"/><line x1="36" y1="324" x2="436" y2="324" stroke="rgba(56,189,248,0.055)"/><line x1="36" y1="364" x2="436" y2="364" stroke="rgba(56,189,248,0.055)"/><line x1="36" y1="404" x2="436" y2="404" stroke="rgba(56,189,248,0.055)"/><line x1="36" y1="444" x2="436" y2="444" stroke="rgba(56,189,248,0.055)"/><line x1="36" y1="484" x2="436" y2="484" stroke="rgba(56,189,248,0.055)"/><line x1="36" y1="524" x2="436" y2="524" stroke="rgba(56,189,248,0.055)"/><line x1="36" y1="564" x2="436" y2="564" stroke="rgba(56,189,248,0.055)"/>
<g opacity="0"><animate attributeName="opacity" values="1;1;0;0;0;0;1" keyTimes="0;0.29;0.333;0.62;0.667;0.955;1" dur="13.8s" begin="1.1s" repeatCount="indefinite"/><g transform="translate(136,196) scale(1.5625)"><g><animateTransform attributeName="transform" type="translate" values="0 0;0 -5;0 0" dur="4.5s" repeatCount="indefinite" calcMode="spline" keyTimes="0;0.5;1" keySplines=".4 0 .2 1;.4 0 .2 1" additive="sum"/><rect x="1.4" y="1.4" width="125.2" height="125.2" rx="10" fill="#F0DB4F"/><path fill="#1A1A1A" d="M116.347 96.736c-.917-5.711-4.641-10.508-15.672-14.981-3.832-1.761-8.104-3.022-9.377-5.926-.452-1.69-.512-2.642-.226-3.665.821-3.32 4.784-4.355 7.925-3.403 2.023.678 3.938 2.237 5.093 4.724 5.402-3.498 5.391-3.475 9.163-5.879-1.381-2.141-2.118-3.129-3.022-4.045-3.249-3.629-7.676-5.498-14.756-5.355l-3.688.477c-3.534.893-6.902 2.748-8.877 5.235-5.926 6.724-4.236 18.492 2.975 23.335 7.104 5.332 17.54 6.545 18.873 11.531 1.297 6.104-4.486 8.08-10.234 7.378-4.236-.881-6.592-3.034-9.139-6.949-4.688 2.713-4.688 2.713-9.508 5.485 1.143 2.499 2.344 3.63 4.26 5.795 9.068 9.198 31.76 8.746 35.83-5.176.165-.478 1.261-3.666.38-8.581zM69.462 58.943H57.753l-.048 30.272c0 6.438.333 12.34-.714 14.149-1.713 3.558-6.152 3.117-8.175 2.427-2.059-1.012-3.106-2.451-4.319-4.485-.333-.584-.583-1.036-.667-1.071l-9.52 5.83c1.583 3.249 3.915 6.069 6.902 7.901 4.462 2.678 10.459 3.499 16.731 2.059 4.082-1.189 7.604-3.652 9.448-7.401 2.666-4.915 2.094-10.864 2.07-17.444.06-10.735.001-21.468.001-32.237z"/></g></g><ellipse cx="236" cy="420" rx="92" ry="10" fill="#F0DB4F" opacity="0.14" filter="url(#glow8)"/><text x="236" y="512" text-anchor="middle" font-size="15" letter-spacing="1" fill="#F0DB4F" font-weight="700">&gt; render javascript.logo</text></g>
<g opacity="0"><animate attributeName="opacity" values="0;0;1;1;0;0;0" keyTimes="0;0.29;0.333;0.62;0.667;0.955;1" dur="13.8s" begin="1.1s" repeatCount="indefinite"/><g transform="translate(136,196) scale(1.5625)"><g><animateTransform attributeName="transform" type="translate" values="0 0;0 -5;0 0" dur="4.5s" repeatCount="indefinite" calcMode="spline" keyTimes="0;0.5;1" keySplines=".4 0 .2 1;.4 0 .2 1" additive="sum"/><g transform="translate(0 10.26)"><path fill="url(#pyBlue)" d="M63.391 1.988c-4.222.02-8.252.379-11.8 1.007-10.45 1.846-12.346 5.71-12.346 12.837v9.411h24.693v3.137H29.977c-7.176 0-13.46 4.313-15.426 12.521-2.268 9.405-2.368 15.275 0 25.096 1.755 7.311 5.947 12.519 13.124 12.519h8.491V67.234c0-8.151 7.051-15.34 15.426-15.34h24.665c6.866 0 12.346-5.654 12.346-12.548V15.833c0-6.693-5.646-11.72-12.346-12.837-4.244-.706-8.645-1.027-12.866-1.008zM50.037 9.557c2.55 0 4.634 2.117 4.634 4.721 0 2.593-2.083 4.69-4.634 4.69-2.56 0-4.633-2.097-4.633-4.69-.001-2.604 2.073-4.721 4.633-4.721z"/><path fill="url(#pyGold)" d="M91.682 28.38v10.966c0 8.5-7.208 15.655-15.426 15.655H51.591c-6.756 0-12.346 5.783-12.346 12.549v23.515c0 6.691 5.818 10.628 12.346 12.547 7.816 2.297 15.312 2.713 24.665 0 6.216-1.801 12.346-5.423 12.346-12.547v-9.412H63.938v-3.138h37.012c7.176 0 9.852-5.005 12.348-12.519 2.578-7.735 2.467-15.174 0-25.096-1.774-7.145-5.161-12.521-12.348-12.521h-9.268zM77.809 87.927c2.561 0 4.634 2.097 4.634 4.692 0 2.602-2.074 4.719-4.634 4.719-2.55 0-4.633-2.117-4.633-4.719 0-2.595 2.083-4.692 4.633-4.692z"/></g></g></g><ellipse cx="236" cy="420" rx="92" ry="10" fill="#4B8BBE" opacity="0.20" filter="url(#glow8)"/><text x="236" y="512" text-anchor="middle" font-size="15" letter-spacing="1" fill="#FFD43B" font-weight="700">&gt; render python.logo</text></g>
<g opacity="0"><animate attributeName="opacity" values="0;0;0;0;1;1;0" keyTimes="0;0.29;0.333;0.62;0.667;0.955;1" dur="13.8s" begin="1.1s" repeatCount="indefinite"/><g text-anchor="middle" font-weight="700"><text x="230" y="330" font-size="92" fill="url(#tagGrad)" filter="url(#txtGlow)" xml:space="preserve"><tspan opacity="0"><animate attributeName="opacity" values="0;0;1;1;0" keyTimes="0;0.674;0.6745;0.99;1" dur="13.8s" begin="1.1s" repeatCount="indefinite"/>&lt;</tspan><tspan opacity="0"><animate attributeName="opacity" values="0;0;1;1;0" keyTimes="0;0.692;0.6925;0.99;1" dur="13.8s" begin="1.1s" repeatCount="indefinite"/>/</tspan><tspan opacity="0"><animate attributeName="opacity" values="0;0;1;1;0" keyTimes="0;0.710;0.7105;0.99;1" dur="13.8s" begin="1.1s" repeatCount="indefinite"/>&gt;</tspan><tspan font-size="72" fill="#F472B6">&#9612;<animate attributeName="fill-opacity" values="1;0;1" dur="0.9s" repeatCount="indefinite"/></tspan></text><text x="236" y="386" font-size="17" letter-spacing="4" fill="#94A3B8">CODE &#183; SHIP &#183; REPEAT</text></g><ellipse cx="236" cy="424" rx="92" ry="10" fill="#F472B6" opacity="0.18" filter="url(#glow8)"/><text x="236" y="512" text-anchor="middle" font-size="15" letter-spacing="1" fill="#F472B6" font-weight="700">&gt; render code.tag</text></g>

<rect x="36" y="84" width="400" height="70" fill="url(#scan)" opacity="0.55">
  <animate attributeName="y" values="84;506;84" dur="7s" repeatCount="indefinite"/>
</rect>
</g>
<circle cx="206" cy="546" r="4" fill="#38BDF8" opacity="0.22"><animate attributeName="opacity" values="1;1;0;0;0;0;1" keyTimes="0;0.29;0.333;0.62;0.667;0.955;1" dur="13.8s" begin="1.1s" repeatCount="indefinite"/></circle><circle cx="206" cy="546" r="4" fill="none" stroke="rgba(56,189,248,0.35)"/><circle cx="236" cy="546" r="4" fill="#38BDF8" opacity="0.22"><animate attributeName="opacity" values="0;0;1;1;0;0;0" keyTimes="0;0.29;0.333;0.62;0.667;0.955;1" dur="13.8s" begin="1.1s" repeatCount="indefinite"/></circle><circle cx="236" cy="546" r="4" fill="none" stroke="rgba(56,189,248,0.35)"/><circle cx="266" cy="546" r="4" fill="#38BDF8" opacity="0.22"><animate attributeName="opacity" values="0;0;0;0;1;1;0" keyTimes="0;0.29;0.333;0.62;0.667;0.955;1" dur="13.8s" begin="1.1s" repeatCount="indefinite"/></circle><circle cx="266" cy="546" r="4" fill="none" stroke="rgba(56,189,248,0.35)"/>
<path d="M 50 84 L 36 84 L 36 98" fill="none" stroke="#38BDF8" stroke-width="2" opacity="0.85"/>
<path d="M 422 84 L 436 84 L 436 98" fill="none" stroke="#38BDF8" stroke-width="2" opacity="0.85"/>
<path d="M 50 576 L 36 576 L 36 562" fill="none" stroke="#38BDF8" stroke-width="2" opacity="0.85"/>
<path d="M 422 576 L 436 576 L 436 562" fill="none" stroke="#38BDF8" stroke-width="2" opacity="0.85"/>

<!-- right panel -->
<text x="470" y="106" font-size="13" letter-spacing="2" fill="#38BDF8" filter="url(#txtGlow)">SYSTEM.INFO</text>
<line x1="566" y1="102" x2="1061" y2="102" stroke="rgba(255,255,255,0.10)"/>
<text x="1125" y="106" text-anchor="end" font-size="12" fill="#F87171" font-weight="700"><tspan>&#9679;&#160;</tspan>LIVE<animate attributeName="opacity" values="1;0.25;1" dur="1.6s" repeatCount="indefinite"/></text>

<g opacity="0"><animate attributeName="opacity" from="0" to="1" dur="0.5s" begin="0.5s" fill="freeze"/>
<rect x="470" y="122" width="256" height="20" rx="4" fill="#155E75"/>
<text x="479" y="136" font-size="14" font-weight="700" fill="#CFFAFE">python &#183; django &#183; javascript</text>
<line x1="736" y1="130" x2="1125" y2="130" stroke="rgba(255,255,255,0.10)"/>
</g>

<g opacity="0"><animate attributeName="opacity" from="0" to="1" dur="0.4s" begin="0.9s" fill="freeze"/><animateTransform attributeName="transform" type="translate" values="-10 0;0 0" dur="0.4s" begin="0.9s" fill="freeze"/><text x="470" y="162" font-size="14" textLength="655" lengthAdjust="spacingAndGlyphs" xml:space="preserve"><tspan fill="#38BDF8">Subject </tspan><tspan fill="rgba(148,163,184,0.30)">................................................................</tspan><tspan fill="#F8FAFC" font-weight="600"> Ariel</tspan></text></g>
<g opacity="0"><animate attributeName="opacity" from="0" to="1" dur="0.4s" begin="1.02s" fill="freeze"/><animateTransform attributeName="transform" type="translate" values="-10 0;0 0" dur="0.4s" begin="1.02s" fill="freeze"/><text x="470" y="185" font-size="14" textLength="655" lengthAdjust="spacingAndGlyphs" xml:space="preserve"><tspan fill="#38BDF8">Role </tspan><tspan fill="rgba(148,163,184,0.30)">..............................................</tspan><tspan fill="#F8FAFC" font-weight="600"> Developer &amp; Technical Lead</tspan></text></g>
<g opacity="0"><animate attributeName="opacity" from="0" to="1" dur="0.4s" begin="1.14s" fill="freeze"/><animateTransform attributeName="transform" type="translate" values="-10 0;0 0" dur="0.4s" begin="1.14s" fill="freeze"/><text x="470" y="208" font-size="14" textLength="655" lengthAdjust="spacingAndGlyphs" xml:space="preserve"><tspan fill="#38BDF8">Origin </tspan><tspan fill="rgba(148,163,184,0.30)">.......................................................</tspan><tspan fill="#F8FAFC" font-weight="600"> Ambato, Ecuador</tspan></text></g>
<g opacity="0"><animate attributeName="opacity" from="0" to="1" dur="0.4s" begin="1.26s" fill="freeze"/><animateTransform attributeName="transform" type="translate" values="-10 0;0 0" dur="0.4s" begin="1.26s" fill="freeze"/><text x="470" y="231" font-size="14" textLength="655" lengthAdjust="spacingAndGlyphs" xml:space="preserve"><tspan fill="#38BDF8">Focus </tspan><tspan fill="rgba(148,163,184,0.30)">...............................................</tspan><tspan fill="#F8FAFC" font-weight="600"> Academic &amp; ERP platforms</tspan></text></g>
<g opacity="0"><animate attributeName="opacity" from="0" to="1" dur="0.4s" begin="1.38s" fill="freeze"/><animateTransform attributeName="transform" type="translate" values="-10 0;0 0" dur="0.4s" begin="1.38s" fill="freeze"/><text x="470" y="254" font-size="14" textLength="655" lengthAdjust="spacingAndGlyphs" xml:space="preserve"><tspan fill="#38BDF8">Status </tspan><tspan fill="rgba(148,163,184,0.30)">......................................</tspan><tspan fill="#F8FAFC" font-weight="600"> Building + Shipping + Automating</tspan></text></g>
<g opacity="0"><animate attributeName="opacity" from="0" to="1" dur="0.4s" begin="1.5s" fill="freeze"/><animateTransform attributeName="transform" type="translate" values="-10 0;0 0" dur="0.4s" begin="1.5s" fill="freeze"/><text x="470" y="277" font-size="14" textLength="655" lengthAdjust="spacingAndGlyphs" xml:space="preserve"><tspan fill="#38BDF8">ToolChain </tspan><tspan fill="rgba(148,163,184,0.30)">......................................</tspan><tspan fill="#F8FAFC" font-weight="600"> VS Code, Git, Docker, Postman</tspan></text></g>
<g opacity="0"><animate attributeName="opacity" from="0" to="1" dur="0.4s" begin="1.72s" fill="freeze"/><animateTransform attributeName="transform" type="translate" values="-10 0;0 0" dur="0.4s" begin="1.72s" fill="freeze"/><text x="470" y="308" font-size="14" textLength="655" lengthAdjust="spacingAndGlyphs" xml:space="preserve"><tspan fill="#38BDF8">Core.Lang </tspan><tspan fill="rgba(148,163,184,0.30)">.....................................</tspan><tspan fill="#F8FAFC" font-weight="600"> Python, JavaScript, TypeScript</tspan></text></g>
<g opacity="0"><animate attributeName="opacity" from="0" to="1" dur="0.4s" begin="1.84s" fill="freeze"/><animateTransform attributeName="transform" type="translate" values="-10 0;0 0" dur="0.4s" begin="1.84s" fill="freeze"/><text x="470" y="331" font-size="14" textLength="655" lengthAdjust="spacingAndGlyphs" xml:space="preserve"><tspan fill="#38BDF8">Core.Frontend </tspan><tspan fill="rgba(148,163,184,0.30)">............................................</tspan><tspan fill="#F8FAFC" font-weight="600"> React, Tailwind CSS</tspan></text></g>
<g opacity="0"><animate attributeName="opacity" from="0" to="1" dur="0.4s" begin="1.96s" fill="freeze"/><animateTransform attributeName="transform" type="translate" values="-10 0;0 0" dur="0.4s" begin="1.96s" fill="freeze"/><text x="470" y="354" font-size="14" textLength="655" lengthAdjust="spacingAndGlyphs" xml:space="preserve"><tspan fill="#38BDF8">Core.Backend </tspan><tspan fill="rgba(148,163,184,0.30)">............................................</tspan><tspan fill="#F8FAFC" font-weight="600"> Django, DRF, Node.js</tspan></text></g>
<g opacity="0"><animate attributeName="opacity" from="0" to="1" dur="0.4s" begin="2.08s" fill="freeze"/><animateTransform attributeName="transform" type="translate" values="-10 0;0 0" dur="0.4s" begin="2.08s" fill="freeze"/><text x="470" y="377" font-size="14" textLength="655" lengthAdjust="spacingAndGlyphs" xml:space="preserve"><tspan fill="#38BDF8">Core.Database </tspan><tspan fill="rgba(148,163,184,0.30)">..............................................</tspan><tspan fill="#F8FAFC" font-weight="600"> PostgreSQL, Redis</tspan></text></g>
<g opacity="0"><animate attributeName="opacity" from="0" to="1" dur="0.4s" begin="2.2s" fill="freeze"/><animateTransform attributeName="transform" type="translate" values="-10 0;0 0" dur="0.4s" begin="2.2s" fill="freeze"/><text x="470" y="400" font-size="14" textLength="655" lengthAdjust="spacingAndGlyphs" xml:space="preserve"><tspan fill="#38BDF8">Core.Infra </tspan><tspan fill="rgba(148,163,184,0.30)">..............................................</tspan><tspan fill="#F8FAFC" font-weight="600"> Docker, Nginx, Linux</tspan></text></g>
<g opacity="0"><animate attributeName="opacity" from="0" to="1" dur="0.4s" begin="2.42s" fill="freeze"/><text x="470" y="431" font-size="14" textLength="655" lengthAdjust="spacingAndGlyphs" xml:space="preserve"><tspan fill="#94A3B8">- Contact </tspan><tspan fill="rgba(148,163,184,0.28)">--------------------------------------------------------------------</tspan></text></g>
<g opacity="0"><animate attributeName="opacity" from="0" to="1" dur="0.4s" begin="2.54s" fill="freeze"/><animateTransform attributeName="transform" type="translate" values="-10 0;0 0" dur="0.4s" begin="2.54s" fill="freeze"/><text x="470" y="454" font-size="14" textLength="655" lengthAdjust="spacingAndGlyphs" xml:space="preserve"><tspan fill="#38BDF8">Grid.Mail </tspan><tspan fill="rgba(148,163,184,0.30)">..............................................</tspan><tspan fill="#F8FAFC" font-weight="600"> your.mail@example.com</tspan></text></g>
<g opacity="0"><animate attributeName="opacity" from="0" to="1" dur="0.4s" begin="2.66s" fill="freeze"/><animateTransform attributeName="transform" type="translate" values="-10 0;0 0" dur="0.4s" begin="2.66s" fill="freeze"/><text x="470" y="477" font-size="14" textLength="655" lengthAdjust="spacingAndGlyphs" xml:space="preserve"><tspan fill="#38BDF8">Grid.GitHub </tspan><tspan fill="rgba(148,163,184,0.30)">.....................................................</tspan><tspan fill="#F8FAFC" font-weight="600"> @your-handle</tspan></text></g>
<g opacity="0"><animate attributeName="opacity" from="0" to="1" dur="0.4s" begin="2.78s" fill="freeze"/><animateTransform attributeName="transform" type="translate" values="-10 0;0 0" dur="0.4s" begin="2.78s" fill="freeze"/><text x="470" y="500" font-size="14" textLength="655" lengthAdjust="spacingAndGlyphs" xml:space="preserve"><tspan fill="#38BDF8">Grid.LinkedIn </tspan><tspan fill="rgba(148,163,184,0.30)">.................................................</tspan><tspan fill="#F8FAFC" font-weight="600"> in/your-handle</tspan></text></g>
<g opacity="0"><animate attributeName="opacity" from="0" to="1" dur="0.4s" begin="2.9s" fill="freeze"/><animateTransform attributeName="transform" type="translate" values="-10 0;0 0" dur="0.4s" begin="2.9s" fill="freeze"/><text x="470" y="523" font-size="14" textLength="655" lengthAdjust="spacingAndGlyphs" xml:space="preserve"><tspan fill="#38BDF8">Grid.Portfolio </tspan><tspan fill="rgba(148,163,184,0.30)">...................................................</tspan><tspan fill="#F8FAFC" font-weight="600"> coming soon</tspan></text></g>

<g opacity="0"><animate attributeName="opacity" from="0" to="1" dur="0.5s" begin="3.3s" fill="freeze"/>
<text x="470" y="552" font-size="14" fill="#94A3B8">&#9656; More about me &amp; projects below in README &#8595; <tspan fill="#38BDF8">&#9608;<animate attributeName="fill-opacity" values="1;0;1" dur="1s" repeatCount="indefinite"/></tspan></text>
</g>
</g>

<rect x="3" y="3" width="1174" height="604" rx="17" fill="none" stroke="url(#accent)" stroke-width="3" opacity="0.55" filter="url(#glow8)"/>
<rect x="3" y="3" width="1174" height="604" rx="17" fill="none" stroke="url(#accent)" stroke-width="1.6"/>
</svg>
